<svg width="32" height="32" viewBox="0 0 32 32" fill="none" xmlns="http://www.w3.org/2000/svg">
<path d="M23 7.92308C23 11.7713 19.8909 14.8462 16 14.8462C12.1091 14.8462 9 11.7713 9 7.92308C9 4.0749 12.1091 1 16 1C19.8909 1 23 4.0749 23 7.92308Z" fill="black"/>
<path d="M16 17.1538C19.5 17.1538 30 19.4615 30 31H2C2 19.3871 12.5 17.1538 16 17.1538Z" fill="black"/>
<path d="M23 7.92308C23 11.7713 19.8909 14.8462 16 14.8462C12.1091 14.8462 9 11.7713 9 7.92308C9 4.0749 12.1091 1 16 1C19.8909 1 23 4.0749 23 7.92308Z" stroke="black" stroke-linecap="round" stroke-linejoin="round"/>
<path d="M16 17.1538C19.5 17.1538 30 19.4615 30 31H2C2 19.3871 12.5 17.1538 16 17.1538Z" stroke="black" stroke-linecap="round" stroke-linejoin="round"/>
</svg>
