<svg width="34" height="33" viewBox="0 0 34 33" fill="none" xmlns="http://www.w3.org/2000/svg">
<path d="M1 11.1667C1 8.86548 2.79086 7 5 7H29C31.2091 7 33 8.86548 33 11.1667V27.8333C33 30.1345 31.2091 32 29 32H5C2.79086 32 1 30.1345 1 27.8333V11.1667Z" fill="black"/>
<path d="M4 10.125L15.8616 18.679C16.5465 19.1729 17.4535 19.1729 18.1384 18.679L30 10.125M5 32H29C31.2091 32 33 30.1345 33 27.8333V11.1667C33 8.86548 31.2091 7 29 7H5C2.79086 7 1 8.86548 1 11.1667V27.8333C1 30.1345 2.79086 32 5 32Z" stroke="white" stroke-width="2" stroke-linecap="round" stroke-linejoin="round"/>
</svg>
