<svg width="32" height="34" viewBox="0 0 32 34" fill="none" xmlns="http://www.w3.org/2000/svg">
<path d="M25.0001 1H7.00007C4.79099 1 3.00017 2.79085 3.00015 4.99998L3 28.9999C2.99999 31.209 4.7908 32.9999 6.9999 32.9999L24.9996 33C27.2087 33 28.9995 31.2092 28.9995 29.0001L29 5.00008C29 2.79091 27.2092 1 25.0001 1Z" fill="black"/>
<path d="M10.0005 9H22.0002M10.0005 15H22.0002M10.0005 21H16.0004M7.00007 1H25.0001C27.2092 1 29 2.79091 29 5.00008L28.9995 29.0001C28.9995 31.2092 27.2087 33 24.9996 33L6.9999 32.9999C4.7908 32.9999 2.99999 31.209 3 28.9999L3.00015 4.99998C3.00017 2.79085 4.79099 1 7.00007 1Z" stroke="white" stroke-width="2" stroke-linecap="round" stroke-linejoin="round"/>
</svg>
